# xmcd
#
# Track frame offsets:
#	150
#	12555
#	23122
#	33007
#	42689
#	53001
#	63238
#	74623
#	87170
#	98735
#	109422
#	121947
#
# Disc length: 1768
#
# Revision: 1
# Processed by: cddbd v1.5.1PL0 Copyright (c) Steve Scherf et al.
# Submitted via: Nero 5.5.10.42
# Normalized: r0:DSETVAR1
#
DISCID=9e06e60c
DTITLE=Various Artist - Country Hits Parase
DYEAR=1900
DGENRE=
TTITLE0=Hank Snow - I've Been Everywhere
TTITLE1=Roger Miller - Hey Little Star
TTITLE2=Norma Jean - Go Cat Go
TTITLE3=Eddy Arnold - What's He Doin' In My World
TTITLE4=Connie Smith - Once A Day
TTITLE5=Hank Locklin - You're The Reason
TTITLE6=Dottie West - Here Comes My Baby
TTITLE7=Bobby Bare - Detroit City
TTITLE8=Jim Reeves - Welcome To My World
TTITLE9=Porter Wagoner - I'll Go Down Swinging
TTITLE10=Skeeter Davis - He Says The Same Things To Me
TTITLE11=George Hamilton IV - Truck Driving Man
EXTD=
EXTT0=
EXTT1=
EXTT2=
EXTT3=
EXTT4=
EXTT5=
EXTT6=
EXTT7=
EXTT8=
EXTT9=
EXTT10=
EXTT11=
PLAYORDER=
